<?xml version="1.0" encoding="UTF-8"?>
<!DOCTYPE svg PUBLIC "-//W3C//DTD SVG 1.1//EN" "http://www.w3.org/Graphics/SVG/1.1/DTD/svg11.dtd">
<!-- Creator: CorelDRAW -->
<svg xmlns="http://www.w3.org/2000/svg" xml:space="preserve" width="6.82666in" height="6.82666in" style="shape-rendering:geometricPrecision; text-rendering:geometricPrecision; image-rendering:optimizeQuality; fill-rule:evenodd; clip-rule:evenodd"
viewBox="0 0 6.82666 6.82666"
 xmlns:xlink="http://www.w3.org/1999/xlink">
 <defs>
  <style type="text/css">
   <![CDATA[
    .fil1 {fill:none}
    .fil0 {fill:#ffffff;fill-rule:nonzero}
   ]]>
  </style>
 </defs>
 <g id="Layer_x0020_1">
  <metadata id="CorelCorpID_0Corel-Layer"/>
  <g id="_397660136">
   <path id="_397661480" class="fil0" d="M5.97333 3.41333c0,0.140579 -0.0569921,0.267866 -0.14913,0.360004 -0.0921378,0.0921378 -0.219425,0.14913 -0.360004,0.14913 -0.140579,0 -0.267862,-0.0569921 -0.360004,-0.14913 -0.0921378,-0.0921378 -0.14913,-0.219425 -0.14913,-0.360004 0,-0.140579 0.0569921,-0.267866 0.14913,-0.360004 0.0921417,-0.0921378 0.219425,-0.14913 0.360004,-0.14913 0.140579,0 0.267866,0.0569921 0.360004,0.14913 0.0921378,0.0921378 0.14913,0.219425 0.14913,0.360004zm-0.299965 0.209169c0.0535197,-0.0535197 0.086626,-0.127476 0.086626,-0.209169 0,-0.0816929 -0.0331063,-0.15565 -0.086626,-0.209169 -0.0535197,-0.0535197 -0.127476,-0.086626 -0.209169,-0.086626 -0.0816929,0 -0.155646,0.0331063 -0.209169,0.086626 -0.0535197,0.0535197 -0.086626,0.127476 -0.086626,0.209169 0,0.0816929 0.0331063,0.15565 0.086626,0.209169 0.0535236,0.0535197 0.127476,0.086626 0.209169,0.086626 0.0816929,0 0.15565,-0.0331063 0.209169,-0.086626z"/>
   <path id="_397661240" class="fil0" d="M1.8716 3.41333c0,0.140579 -0.0569921,0.267866 -0.14913,0.360004 -0.0921417,0.0921378 -0.219425,0.14913 -0.360004,0.14913 -0.140579,0 -0.267866,-0.0569921 -0.360004,-0.14913 -0.0921378,-0.0921378 -0.14913,-0.219425 -0.14913,-0.360004 0,-0.140579 0.0569921,-0.267866 0.14913,-0.360004 0.0921378,-0.0921378 0.219425,-0.14913 0.360004,-0.14913 0.140579,0 0.267862,0.0569921 0.360004,0.14913 0.0921378,0.0921378 0.14913,0.219425 0.14913,0.360004zm-0.299965 0.209169c0.0535197,-0.0535197 0.086626,-0.127476 0.086626,-0.209169 0,-0.0816929 -0.0331063,-0.15565 -0.086626,-0.209169 -0.0535236,-0.0535197 -0.127476,-0.086626 -0.209169,-0.086626 -0.0816929,0 -0.15565,0.0331063 -0.209169,0.086626 -0.0535197,0.0535197 -0.086626,0.127476 -0.086626,0.209169 0,0.0816929 0.0331063,0.15565 0.086626,0.209169 0.0535197,0.0535197 0.127476,0.086626 0.209169,0.086626 0.0816929,0 0.155646,-0.0331063 0.209169,-0.086626z"/>
   <path id="_397661312" class="fil0" d="M3.92009 1.31311c0.392949,0.0944803 0.744098,0.296343 1.02061,0.572858 0.276512,0.276512 0.478374,0.627657 0.572854,1.02061 -0.0162441,-0.00156299 -0.0327047,-0.00237402 -0.0493583,-0.00237402 -0.0575,0 -0.112772,0.00954331 -0.164327,0.0271142 -0.0876102,-0.343921 -0.26676,-0.651268 -0.510004,-0.894512 -0.243248,-0.243252 -0.550594,-0.422406 -0.89452,-0.510012 0.0175748,-0.0515551 0.0271142,-0.106827 0.0271142,-0.164327 0,-0.0166496 -0.000811024,-0.0331102 -0.00237402,-0.0493543zm-0.98878 0.213685c-0.343925,0.0876063 -0.651264,0.266756 -0.894516,0.510004 -0.243248,0.243252 -0.422398,0.550594 -0.510004,0.894516 -0.0515551,-0.0175709 -0.106827,-0.0271142 -0.164327,-0.0271142 -0.0166535,0 -0.0331181,0.000811024 -0.0493583,0.00237402 0.0944764,-0.392949 0.296343,-0.744094 0.572854,-1.02061 0.276516,-0.276512 0.627661,-0.478374 1.02061,-0.572854 -0.00156299,0.0162402 -0.00237402,0.0327047 -0.00237402,0.0493543 0,0.0575 0.00953937,0.112776 0.0271142,0.164331zm-1.40452 2.36856c0.0876063,0.343925 0.26676,0.651268 0.510012,0.894516 0.243244,0.243244 0.550583,0.422394 0.894508,0.510004 -0.0175709,0.0515512 -0.0271102,0.106827 -0.0271102,0.164323 0,0.0166535 0.000811024,0.0331181 0.00237402,0.0493622 -0.392949,-0.0944803 -0.744094,-0.296343 -1.02061,-0.572854 -0.276516,-0.276516 -0.478378,-0.627665 -0.572858,-1.02061 0.0162441,0.00156299 0.0327047,0.00237402 0.0493583,0.00237402 0.0574961,0 0.112768,-0.00953937 0.164323,-0.0271102zm2.36857 1.40452c0.343929,-0.0876063 0.651268,-0.26676 0.894516,-0.510008 0.243248,-0.243248 0.422402,-0.550591 0.510008,-0.894516 0.0515551,0.0175709 0.106827,0.0271102 0.164323,0.0271102 0.0166535,0 0.0331142,-0.000811024 0.0493583,-0.00237402 -0.0944803,0.392953 -0.296343,0.744102 -0.572854,1.02061 -0.276512,0.276512 -0.627661,0.478374 -1.02061,0.572854 0.00156299,-0.0162441 0.00237402,-0.0327087 0.00237402,-0.0493622 0,-0.0574961 -0.00953937,-0.112764 -0.0271102,-0.164319z"/>
   <path id="_397661456" class="fil0" d="M3.41333 0.853327c0.140579,0 0.267866,0.0569921 0.360004,0.14913 0.0921378,0.0921378 0.14913,0.219425 0.14913,0.360004 0,0.140579 -0.0569921,0.267862 -0.14913,0.360004 -0.0921378,0.0921378 -0.219425,0.14913 -0.360004,0.14913 -0.140579,0 -0.267866,-0.0569921 -0.360004,-0.14913 -0.0921378,-0.0921417 -0.14913,-0.219425 -0.14913,-0.360004 0,-0.140579 0.0569921,-0.267866 0.14913,-0.360004 0.0921378,-0.0921378 0.219425,-0.14913 0.360004,-0.14913zm0.209169 0.299965c-0.0535197,-0.0535197 -0.127476,-0.086626 -0.209169,-0.086626 -0.0816929,0 -0.15565,0.0331063 -0.209169,0.086626 -0.0535197,0.0535197 -0.086626,0.127476 -0.086626,0.209169 0,0.0816929 0.0331063,0.155646 0.086626,0.209169 0.0535197,0.0535197 0.127476,0.086626 0.209169,0.086626 0.0816929,0 0.15565,-0.0331063 0.209169,-0.086626 0.0535197,-0.0535236 0.086626,-0.127476 0.086626,-0.209169 0,-0.0816929 -0.0331063,-0.15565 -0.086626,-0.209169z"/>
   <path id="_397660160" class="fil0" d="M3.41333 4.95506c0.140579,0 0.267866,0.0569921 0.360004,0.14913 0.0921378,0.0921417 0.14913,0.219425 0.14913,0.360004 0,0.140579 -0.0569921,0.267866 -0.14913,0.360004 -0.0921378,0.0921378 -0.219425,0.14913 -0.360004,0.14913 -0.140579,0 -0.267866,-0.0569921 -0.360004,-0.14913 -0.0921378,-0.0921378 -0.14913,-0.219425 -0.14913,-0.360004 0,-0.140579 0.0569921,-0.267862 0.14913,-0.360004 0.0921378,-0.0921378 0.219425,-0.14913 0.360004,-0.14913zm0.209169 0.299965c-0.0535197,-0.0535197 -0.127476,-0.086626 -0.209169,-0.086626 -0.0816929,0 -0.15565,0.0331063 -0.209169,0.086626 -0.0535197,0.0535236 -0.086626,0.127476 -0.086626,0.209169 0,0.0816929 0.0331063,0.15565 0.086626,0.209169 0.0535197,0.0535197 0.127476,0.086626 0.209169,0.086626 0.0816929,0 0.15565,-0.0331063 0.209169,-0.086626 0.0535197,-0.0535197 0.086626,-0.127476 0.086626,-0.209169 0,-0.0816929 -0.0331063,-0.155646 -0.086626,-0.209169z"/>
  </g>
  <path class="fil0" d="M3.41333 2.21685c0.147268,0 0.280602,0.0597008 0.377114,0.15622 0.0965197,0.0965118 0.15622,0.229846 0.15622,0.377114 0,0.147264 -0.0597008,0.280602 -0.15622,0.377114 -0.0965118,0.0965197 -0.229846,0.15622 -0.377114,0.15622 -0.147268,0 -0.280602,-0.0597008 -0.377114,-0.15622 -0.0965197,-0.0965118 -0.15622,-0.22985 -0.15622,-0.377114 0,-0.147268 0.0597008,-0.280602 0.15622,-0.377114 0.0965118,-0.0965197 0.229846,-0.15622 0.377114,-0.15622zm0.22628 0.307055c-0.0578976,-0.0578976 -0.137902,-0.0937165 -0.22628,-0.0937165 -0.088378,0 -0.168382,0.0358189 -0.22628,0.0937165 -0.0578976,0.0578976 -0.0937165,0.137902 -0.0937165,0.22628 0,0.088374 0.0358189,0.168382 0.0937165,0.22628 0.0578976,0.0578976 0.137902,0.0937165 0.22628,0.0937165 0.088378,0 0.168382,-0.0358189 0.22628,-0.0937165 0.0578976,-0.0578976 0.0937165,-0.137906 0.0937165,-0.22628 0,-0.088378 -0.0358189,-0.168382 -0.0937165,-0.22628z"/>
  <path class="fil0" d="M3 3.28985l0.826669 0c0.0844409,0 0.161138,0.0344724 0.216661,0.0900039 0.0555315,0.0555236 0.0900039,0.132228 0.0900039,0.216661l0 0.760004 0 0.106669 -0.106669 0 -1.22666 0 -0.106669 0 0 -0.106669 0 -0.760004c0,-0.0844409 0.0344724,-0.161138 0.09,-0.216665 0.0555276,-0.0555276 0.132224,-0.09 0.216665,-0.09zm0.826669 0.213339l-0.826669 0c-0.0255551,0 -0.0488661,0.0105315 -0.0658307,0.0274961 -0.0169646,0.0169646 -0.0274961,0.0402756 -0.0274961,0.0658307l0 0.653335 1.01332 0 0 -0.653335c0,-0.0255472 -0.0105354,-0.0488661 -0.0275,-0.0658268 -0.0169646,-0.0169685 -0.0402795,-0.0275 -0.0658268,-0.0275z"/>
 </g>
 <rect class="fil1" width="6.82666" height="6.82666"/>
</svg>
